<?xml version="1.0" encoding="utf-8"?>
<!-- Generator: Adobe Illustrator 21.1.0, SVG Export Plug-In . SVG Version: 6.00 Build 0)  -->
<svg version="1.1" id="Ebene_1" xmlns="http://www.w3.org/2000/svg" xmlns:xlink="http://www.w3.org/1999/xlink" x="0px" y="0px"
	 viewBox="0 0 124.7 124.7" style="enable-background:new 0 0 124.7 124.7;" xml:space="preserve">
<path d="M46.1,89.6l-15.9-13l9.1-9c5-4.9,12.4-6.4,18.9-3.8h11.2c2.3,0,4.2,1.9,4.2,4.2c0,2.3-1.9,4.2-4.2,4.2h-8.7
	c-0.8,0-1.4,0.6-1.4,1.4c0,0.8,0.6,1.4,1.4,1.4h9.9c1.4,0,2.8-0.6,3.7-1.7l10.6-12.1c1.6-1.8,4.4-1.9,6.2-0.3
	c1.7,1.6,1.9,4.3,0.4,6.1L78.2,82.4c-2,2.3-4.8,3.6-7.8,3.6H49.7L46.1,89.6z M68.2,54.4c0,4,3.2,7.2,7.2,7.2c4,0,7.2-3.2,7.2-7.2
	s-3.2-7.2-7.2-7.2c0,0,0,0,0,0C71.4,47.2,68.2,50.4,68.2,54.4z M59.8,52.1c3.2,0,5.7-2.6,5.7-5.7c0-3.2-2.6-5.7-5.7-5.7
	c-3.2,0-5.7,2.6-5.7,5.7C54.1,49.5,56.7,52.1,59.8,52.1z M71.3,41.7c2.9,0,5.3-2.4,5.3-5.3s-2.4-5.3-5.3-5.3c-2.9,0-5.3,2.4-5.3,5.3
	C66,39.3,68.4,41.7,71.3,41.7C71.3,41.7,71.3,41.7,71.3,41.7L71.3,41.7z"/>
<circle class="st0" cx="62.4" cy="62.4" r="56.7"/>
</svg>
