<?xml version="1.0" encoding="utf-8"?>
<!-- Generator: Adobe Illustrator 21.1.0, SVG Export Plug-In . SVG Version: 6.00 Build 0)  -->
<svg version="1.1" id="Ebene_1" xmlns="http://www.w3.org/2000/svg" xmlns:xlink="http://www.w3.org/1999/xlink" x="0px" y="0px"
	 viewBox="0 0 124.7 124.7" style="enable-background:new 0 0 124.7 124.7;" xml:space="preserve">
<circle class="st0" cx="62.4" cy="62.4" r="56.7"/>
<path d="M89,81c-1.9,4.9,1.2,7-0.9,10.8c-1.5,2.6-5.9,2.7-6.1-1.5C82,86.1,86.6,86,89,81L89,81z M50.3,81c-1.9,4.9,1.2,7-0.9,10.8
	c-1.5,2.6-5.9,2.7-6.1-1.5C43.3,86.1,47.9,86,50.3,81L50.3,81z M69.6,81c-1.9,4.9,1.2,7-0.9,10.8c-1.5,2.6-5.9,2.7-6.1-1.5
	C62.6,86.1,67.2,86,69.6,81L69.6,81z M39.3,78.2c-6.7-8.6,0.5-22.2,11.1-20.7c3.6-14.3,24-16.2,29.4-2.2
	c13.1-2.6,22.5,9.4,18.5,22.2c-0.2,0.5-0.3,1.1-0.5,1.6c-19.3,0-38.6,0-57.8,0C39.8,78.8,39.5,78.5,39.3,78.2L39.3,78.2z M39.8,58.4
	c0.7-0.6,1.5-1.2,2.4-1.6c-1.3-1.1-2.1-2.8-2.1-4.6c0-3.4,2.7-6.1,6-6.1c2.5,0,4.6,1.5,5.5,3.7c0.6-0.8,1.3-1.5,2.1-2.1
	c-1.5-2.7-4.4-4.5-7.6-4.5c-4.8,0-8.8,4-8.8,8.9C37.3,54.6,38.3,56.8,39.8,58.4L39.8,58.4z M35.5,65.3c0.5-1.9,1.5-3.8,2.7-5.3
	c-0.6-0.5-1.5-0.7-2.3,0.1l-4.5,4.6c-1.5,1.6,0.8,4,2.3,2.4L35.5,65.3L35.5,65.3z M56.2,44.3l4.5-4.6c1.5-1.6-0.8-4-2.3-2.4
	l-4.5,4.6C52.3,43.4,54.6,45.8,56.2,44.3L56.2,44.3z M33.5,53.8c2.2,0,2.2-3.4,0-3.4h-6.3c-2.2,0-2.2,3.4,0,3.4H33.5L33.5,53.8z
	 M36,44.3c1.5,1.6,3.9-0.8,2.3-2.4l-4.5-4.6c-1.5-1.6-3.9,0.8-2.3,2.4L36,44.3L36,44.3z M44.4,39.3c0,2.2,3.3,2.2,3.3,0v-6.4
	c0-2.2-3.3-2.2-3.3,0V39.3L44.4,39.3z M42.2,74.5c17.4,0,34.8,0,52.3,0c2-9.9-5.9-17.5-15.5-14.4c-0.8,0.2-1.5,0.5-2.3,0.7
	c-0.2-0.8-0.4-1.6-0.6-2.3c-3-12.2-20.5-10.4-21.8,1.9c-0.1,1-0.2,1.9-0.3,2.9c-0.9-0.3-1.8-0.7-2.7-1
	C44.5,59.8,38.7,68.5,42.2,74.5z"/>
</svg>
