<?xml version="1.0" encoding="utf-8"?>
<!-- Generator: Adobe Illustrator 21.1.0, SVG Export Plug-In . SVG Version: 6.00 Build 0)  -->
<svg version="1.1" id="Ebene_1" xmlns="http://www.w3.org/2000/svg" xmlns:xlink="http://www.w3.org/1999/xlink" x="0px" y="0px"
	 viewBox="0 0 124.7 124.7" style="enable-background:new 0 0 124.7 124.7;" xml:space="preserve">
<circle class="st0" cx="62.4" cy="62.4" r="56.7"/>
<g transform="translate(0,-952.36218)">
	<path d="M38.3,980.7c-5.5,0-9.9,4.2-9.9,9.9c0,1.3,0.4,3.4,0.8,4.6l9.1,19.5l9.1-19.5c0.4-1.2,0.8-3.3,0.8-4.6
		C48.2,984.9,43.8,980.7,38.3,980.7z M38.3,986.4c2.3,0,4.3,1.9,4.3,4.3s-1.9,4.3-4.3,4.3c-2.3,0-4.3-1.9-4.3-4.3
		S35.9,986.4,38.3,986.4z M85,1010.5c-6.3,0-11.3,4.9-11.3,11.3c0,1.5,0.4,3.7,0.9,5l10.4,21.9l10.4-21.9c0.5-1.3,0.9-3.5,0.9-5
		C96.4,1015.4,91.3,1010.5,85,1010.5L85,1010.5z M40.9,1012.5l-1.2,2.6l22.8,4.8l-13.8,14.5c-0.5,0.6-0.5,1.5,0,2
		c0.1,0.1,0.3,0.3,0.5,0.3l34.1,11.6l-1.7-3.6l-29.4-10l14-14.7c0.5-0.6,0.5-1.5,0-2c-0.2-0.2-0.4-0.3-0.7-0.4L40.9,1012.5
		L40.9,1012.5z M85,1016.9c2.7,0,5,2.2,5,5c0,2.7-2.2,5-5,5c-2.7,0-5-2.2-5-5C80.1,1019.1,82.3,1016.9,85,1016.9z"/>
</g>
</svg>
