<?xml version="1.0" encoding="utf-8"?>
<!-- Generator: Adobe Illustrator 21.1.0, SVG Export Plug-In . SVG Version: 6.00 Build 0)  -->
<svg version="1.1" id="Ebene_1" xmlns="http://www.w3.org/2000/svg" xmlns:xlink="http://www.w3.org/1999/xlink" x="0px" y="0px"
	 viewBox="0 0 124.7 124.7" style="enable-background:new 0 0 124.7 124.7;" xml:space="preserve">
<circle class="st0" cx="62.4" cy="62.4" r="56.7"/>
<g>
	<path d="M82.7,64.6c-2.7,0-5.1,0.8-7.3,2.1l-4.7-6l1.1-3.1c0.7-0.3,1.3-0.6,1.8-0.9c0.1,0,0.1-0.1,0.1-0.1c1.9-1.1,4.1-3.8,3-6.2
		c0-0.1,0-0.1-0.1-0.1L71.1,40c0,0,0-0.1-0.1-0.1c-1.2-1.9-2.3-3.5-5-3.5c-1.5,0-2.9,0.7-3.8,1.9C60.3,41,56.2,49,55,51.2l-5.1,1.3
		c0,0,0,0-0.1,0h-0.1c-0.1,0.1-0.2,0.1-0.4,0.1l0,0c-0.1,0.1-0.2,0.1-0.3,0.3c0,0,0,0,0,0.1c-0.1,0.1-0.1,0.2-0.2,0.4l0,0L45,64.9
		c-0.9-0.2-2-0.4-3-0.4c-7.5,0-13.6,6.1-13.6,13.6c0,7.5,6.2,13.7,13.7,13.7s13.6-6.1,13.6-13.6c0-5.4-3.3-10.2-7.9-12.3l1.2-3.6
		l12.8,16.5c0.1,0.4,0.4,0.7,0.9,0.9c0.1,0,0.1,0,0.2,0H63c0.1,0,0.1,0,0.2,0c0,0,0,0,0.1,0c0,0,0,0,0.1,0h5.8
		c0.7,6.8,6.5,12.2,13.6,12.2c7.5,0,13.6-6.1,13.6-13.6S90.1,64.6,82.7,64.6z M52.8,78.3C52.8,84.2,48,89,42.1,89
		s-10.7-4.8-10.7-10.7s4.9-10.7,10.7-10.7c0.7,0,1.4,0.1,2,0.2l-3.4,10.1c-0.3,0.7,0.1,1.6,0.9,1.8c0.1,0.1,0.3,0.1,0.4,0.1
		c0.6,0,1.2-0.4,1.4-1l3.4-10C50.4,70.4,52.8,74,52.8,78.3z M79.7,76.8H72c0.3-2.3,1.4-4.4,2.9-6L79.7,76.8z M52.1,61.4h5.2
		c0,3,1.4,7,2.6,10.2L52.1,61.4z M57.9,58.5h-7.6l1.1-3.1l6.1,0.2c0.5,0,1-0.2,1.3-0.7l5.2-8.2l3.8,3.8C65,52.2,59.7,55.6,57.9,58.5
		z M63.3,63.3c0.3-0.6,0.9-1.2,1.8-1.8h2.2l-3.5,10.4C63.1,68.5,62.6,64.6,63.3,63.3z M65.3,76.8L69.6,64l3.6,4.5
		c-2.2,2.2-3.7,5.1-4.1,8.3H65.3z M82.7,89c-5.4,0-9.9-4.1-10.7-9.3h10.7c0.6,0,1.1-0.3,1.3-0.8c0.2-0.5,0.1-1.1-0.1-1.5L77.3,69
		c1.6-0.9,3.4-1.5,5.4-1.5c5.9,0,10.7,4.8,10.7,10.7S88.5,89,82.7,89z"/>
	<circle cx="61.3" cy="30.5" r="5.4"/>
</g>
</svg>
