<?xml version="1.0" encoding="utf-8"?>
<!-- Generator: Adobe Illustrator 21.1.0, SVG Export Plug-In . SVG Version: 6.00 Build 0)  -->
<svg version="1.1" id="Ebene_1" xmlns="http://www.w3.org/2000/svg" xmlns:xlink="http://www.w3.org/1999/xlink" x="0px" y="0px"
	 viewBox="0 0 124.7 124.7" style="enable-background:new 0 0 124.7 124.7;" xml:space="preserve">
<circle class="st0" cx="62.4" cy="62.4" r="56.7"/>
<g>
	<path d="M54.8,91.4h-5.5c-0.2,0-0.4,0.3-0.4,0.6v1.1c0,0.4,0.2,0.6,0.4,0.6h5.5c0.2,0,0.4-0.3,0.4-0.6v-1.1
		C55.2,91.7,55,91.4,54.8,91.4z"/>
	<ellipse cx="62.3" cy="26.5" rx="5.2" ry="5.2"/>
	<path d="M72.4,78.6c2.7,0,2.7-2.5,2.7-2.5s-0.1-10.7-0.4-11.6c-0.3-0.7-5.5-9.3-5.5-9.3h-4.7V58c0,0,5,7.5,5.2,8.1
		c0.2,0.5,0.2,10,0.2,10S70.1,78.6,72.4,78.6z"/>
	<path d="M49.3,88c0.1,1.3,1.1,2.4,2.4,2.4c1.6,0,2.8-1.1,2.8-2.7v-0.9V69.9L60.3,58v-2.8h-4.5c0,0-6.2,12.4-6.4,13.2
		c-0.2,0.7-0.1,13,0,18.9c0,0.1,0,0.2,0,0.3C49.3,87.8,49.3,87.9,49.3,88z"/>
	<path d="M80.6,52.6c0-0.1-8.4-15.6-9.8-18.4c-0.6-1.3-1.7-1.3-4.6-1.3c0,0,0,0-0.1,0h-3.4h-0.1h-0.4h0H62h-0.1h-3.4c0,0,0,0-0.1,0
		c-2.9,0-3.9,0-4.6,1.3c-1.4,2.8-9.7,18.3-9.8,18.4c-0.4,0.9,0.1,2,0.9,2.4c0.3,0.2,0.7,0.3,1.2,0.3c0.6,0,1.4-0.4,1.8-1.1l8-15.1
		v12.6h6H62h0.4h0h0.4h0.1h6V39.1l8,15.1c0.4,0.6,1.1,1.1,1.8,1.1c0.4,0,0.8-0.1,1.2-0.3C80.5,54.6,81.1,53.5,80.6,52.6z"/>
	<path d="M62.5,64.6h-0.1h-0.1c-0.7,0-1.3,0.5-1.3,1.2V82v1.7v0.8v1.2v16.6c0,0.6,0.6,1.2,1.3,1.2h0.1h0.1c0.7,0,1.3-0.5,1.3-1.2
		V85.8v-1.3v-0.8v-0.3V65.7C63.8,65.1,63.3,64.6,62.5,64.6z"/>
	<path d="M62.4,52.4H49.9c0,0-0.7,1.3-1,1.8l12.4,0v7.1c-2.2,0.5-3.9,2.5-3.9,4.9V85h2.2V65.7c0-1.1,0.8-2.1,1.9-2.3
		c0.2,0,0.5,0,0.8,0c0.3,0,0.5,0,0.7,0c1.1,0.3,1.9,1.2,1.9,2.3V85h2.2V66.2c0-2.3-1.6-4.3-3.7-4.8v0v-7.1l12.4,0
		c-0.3-0.5-1-1.8-1-1.8L62.4,52.4L62.4,52.4z"/>
	<path d="M75.2,79.6h-5.5c-0.2,0-0.4,0.3-0.4,0.6v1.1c0,0.4,0.2,0.6,0.4,0.6h5.5c0.2,0,0.4-0.3,0.4-0.6v-1.1
		C75.7,79.8,75.5,79.6,75.2,79.6z"/>
</g>
</svg>
