<?xml version="1.0" encoding="utf-8"?>
<!-- Generator: Adobe Illustrator 21.1.0, SVG Export Plug-In . SVG Version: 6.00 Build 0)  -->
<svg version="1.1" id="Ebene_1" xmlns="http://www.w3.org/2000/svg" xmlns:xlink="http://www.w3.org/1999/xlink" x="0px" y="0px"
	 viewBox="0 0 124.7 124.7" style="enable-background:new 0 0 124.7 124.7;" xml:space="preserve">
<circle class="st0" cx="62.4" cy="62.4" r="56.7"/>
<path d="M84.8,59.1c-3,0-5.7,1-7.9,2.7L71.3,56l1.9-5.6h2.2c1,0,1.7-0.8,1.7-1.7c0-1-0.8-1.7-1.7-1.7h-3.4c0,0,0,0,0,0h-4.3
	c-1,0-1.7,0.8-1.7,1.7c0,1,0.8,1.7,1.7,1.7h1.9l-1.4,4.1l-19.5-3.3l4.6-13.8h3.1c1,0,1.7-0.8,1.7-1.7c0-1-0.8-1.7-1.7-1.7H52
	c-0.7,0-1.4,0.5-1.6,1.2l-8,24.1c-0.8-0.1-1.6-0.2-2.4-0.2c-7.1,0-13,5.8-13,13c0,7.1,5.8,13,13,13c7.1,0,13-5.8,13-13
	c0-5.1-3-9.5-7.3-11.6l1.1-3.3L60.6,71c-0.1,0.3-0.2,0.7-0.2,1c0,2,1.6,3.7,3.6,3.7c1.4,0,2.6-0.8,3.2-1.9H72
	C72.8,80.1,78.3,85,84.8,85c7.1,0,13-5.8,13-13S92,59.1,84.8,59.1z M49.4,72.1c0,5.2-4.3,9.5-9.5,9.5c-5.2,0-9.5-4.3-9.5-9.5
	s4.3-9.5,9.5-9.5c0.4,0,0.9,0,1.3,0.1l-3,8.9c-0.3,0.9,0.2,1.9,1.1,2.2c0.2,0.1,0.4,0.1,0.5,0.1c0.7,0,1.4-0.5,1.6-1.2l3-8.9
	C47.4,65.4,49.4,68.5,49.4,72.1z M80.7,70.3h-5.2c0.2-1.3,0.8-2.6,1.5-3.6L80.7,70.3z M70,59.7l4.5,4.5c-1.3,1.7-2.2,3.8-2.5,6.1
	h-4.7c-0.2-0.3-0.3-0.5-0.6-0.8L70,59.7z M63.5,68.5c-0.1,0-0.3,0.1-0.4,0.1L49.4,54.9l17.6,3L63.5,68.5z M84.8,81.6
	c-4.7,0-8.5-3.4-9.3-7.8h9.3c0.7,0,1.3-0.4,1.6-1.1c0.3-0.6,0.1-1.4-0.4-1.9l-6.6-6.6c1.5-1.1,3.4-1.7,5.4-1.7
	c5.2,0,9.5,4.3,9.5,9.5C94.3,77.3,90.1,81.6,84.8,81.6z"/>
</svg>
