<?xml version="1.0" encoding="utf-8"?>
<!-- Generator: Adobe Illustrator 21.1.0, SVG Export Plug-In . SVG Version: 6.00 Build 0)  -->
<svg version="1.1" id="Ebene_1" xmlns="http://www.w3.org/2000/svg" xmlns:xlink="http://www.w3.org/1999/xlink" x="0px" y="0px"
	 viewBox="0 0 124.7 124.7" style="enable-background:new 0 0 124.7 124.7;" xml:space="preserve">
<style type="text/css">
	.st1{stroke:#17558C;stroke-miterlimit:10;}
</style>
<circle class="st0" cx="62.4" cy="62.4" r="56.7"/>
<path class="st1" d="M88.1,59.6c-1.5,0-2.9,0.3-4.2,0.7l-4.2-8.6l1.5-4.7h1.4c0.8,0,1.4-0.6,1.4-1.4c0-0.8-0.6-1.4-1.4-1.4h-6.3v0
	c-0.8,0-1.4,0.6-1.4,1.4c0,0.8,0.6,1.4,1.4,1.4h1.9l-7.3,22.2c-0.9,0.2-1.7,0.7-2.1,1.5h-8.5V45.5l5.2-5.2c0.5-0.5,0.5-1.4,0-2
	c-0.5-0.5-1.4-0.5-2,0L57.9,44c-0.3,0.3-0.4,0.6-0.4,1V50l-32.2,4.7c-0.7,0.1-1.2,0.7-1.2,1.4v16.1c0,0.8,0.6,1.4,1.4,1.4h4.3
	c0.7,6.3,6,11.2,12.4,11.2c6.4,0,11.8-4.9,12.4-11.2h14.2c0.5,0.9,1.5,1.6,2.6,1.6c1.1,0,2.1-0.6,2.6-1.6h1.7
	c0.7,6.3,6,11.2,12.4,11.2c6.9,0,12.5-5.6,12.5-12.6C100.6,65.3,95,59.6,88.1,59.6z M51.8,73.6c-0.7,4.7-4.7,8.4-9.6,8.4
	c-4.9,0-9-3.6-9.6-8.4h0c-0.1-0.9-0.1-1.9,0-2.8h-0.1c0.7-4.7,4.7-8.4,9.6-8.4c4.9,0,9,3.6,9.6,8.4h-0.1
	C51.9,71.7,51.9,72.7,51.8,73.6L51.8,73.6z M57.5,70.8h-2.9c-0.7-6.3-6-11.2-12.4-11.2s-11.8,4.9-12.4,11.2h-2.9V57.3l30.6-4.5V70.8
	z M85.9,70.8h-7.4c0.4-2.8,1.9-5.1,4.1-6.7L85.9,70.8z M74,70.8c-0.1-0.2-0.3-0.4-0.5-0.6l4.8-14.7l3,6.1c-3.1,2-5.3,5.3-5.7,9.2H74
	z M88.1,82c-4.9,0-9-3.6-9.6-8.4h9.6c0.5,0,0.9-0.2,1.2-0.7c0.3-0.4,0.3-0.9,0.1-1.4l-4.3-8.7c0.9-0.3,2-0.5,3-0.5
	c5.4,0,9.7,4.4,9.7,9.8S93.5,82,88.1,82z"/>
</svg>
