<?xml version="1.0" encoding="utf-8"?>
<!-- Generator: Adobe Illustrator 21.1.0, SVG Export Plug-In . SVG Version: 6.00 Build 0)  -->
<svg version="1.1" id="Ebene_1" xmlns="http://www.w3.org/2000/svg" xmlns:xlink="http://www.w3.org/1999/xlink" x="0px" y="0px"
	 viewBox="0 0 124.7 124.7" style="enable-background:new 0 0 124.7 124.7;" xml:space="preserve">
<circle class="st0" cx="62.4" cy="62.4" r="56.7"/>
<path d="M80.3,88.8c-2.3-2.3-2.3-6,0-8.3s6-2.3,8.3,0c2.3,2.3,2.3,6,0,8.3C86.3,91,82.6,91,80.3,88.8L80.3,88.8z M48.1,65.4
	L31.9,81.6c-1.8,1.8-2,4.6-0.2,6.4l4.7,4.7c1.8,1.8,4.9,2,6.7,0.2l16.2-16.2l-1.5-1.5l4.3-4.3l12.5,12.5c-0.3,2.8,0.6,5.8,2.8,7.9
	c3.8,3.8,10,3.8,13.8,0c3.8-3.8,3.8-10,0-13.8c-2.2-2.2-5.2-3.1-8-2.8L68.7,60.3l15-15l3.6-0.1l7-7l-7.6-7.6l-7,7l-0.2,3.5l-15,15
	l-9.9-9.9c4-11.1-7.9-19.1-16.2-14.2l6.9,6.9c4.4,4.4-2.2,11-6.6,6.5l-6.9-6.9c-3.9,9.6,2.8,19.4,13.9,15.9l8.3,8.3L49.7,67
	L48.1,65.4z"/>
</svg>
