<?xml version="1.0" encoding="utf-8"?>
<!-- Generator: Adobe Illustrator 21.1.0, SVG Export Plug-In . SVG Version: 6.00 Build 0)  -->
<svg version="1.1" id="Ebene_1" xmlns="http://www.w3.org/2000/svg" xmlns:xlink="http://www.w3.org/1999/xlink" x="0px" y="0px"
	 viewBox="0 0 124.7 124.7" style="enable-background:new 0 0 124.7 124.7;" xml:space="preserve">
<circle class="st0" cx="62.4" cy="62.4" r="56.7"/>
<path d="M69.3,59.9c0.9,0,1.8-0.4,2.6-1l1.4-2l2.4-3.3l3.5-5l2.9-4.8l0.2-0.2c0.8-1.2,1.9-3.6,0-4.5c-1.6-0.7-2.8-1-3.9,0.2
	L65.6,57.2C66,58.6,67.9,59.9,69.3,59.9z"/>
<path d="M73.9,61.5c0,0.2-0.1,0.3-0.1,0.5c-0.4,2.1,2.6,2.8,3.9,2.6c2.3-0.4,4.3-2.4,6-4.5c1.2-1.5,5.5-7.1,3.9-10.4
	c-0.9-1.9-3.1-2.6-4.2-1.4L73.9,61.5z"/>
<path d="M63.5,27c-4.8-0.9-7.1,4.9-9.2,8.4l7.3,3.3C64,35.2,69.8,29.2,63.5,27z"/>
<path d="M64.5,39.9c0.6,0.3,1.1,0.5,1.5,0.8l1.2,0.5l1.6,0.7l-0.5,1.2c-1.6,3.9-5,8.2-10,6.7c-0.8,2.4,1.4,2.5,3,3.2
	c1.2,0.3,2.1,1.4,4.2-1.1L67,50c0.1-0.2,0.2-0.3,0.3-0.5c-0.1,0.2-0.2,0.3-0.3,0.5l3.5-5c0,0,0,0,0,0l4.4-6.3c0.6-1,1.1-1.6,1.4-2.6
	c1-1.7,0.9-3.6-1.4-4.8c-1.5-0.8-3.6-1-4.9,0.6l-5,7L64.5,39.9z"/>
<path d="M76.9,66.9c-3.3-0.3-5.2-0.7-5.3-4.6c-1.6,0.2-5.1,0.6-6.4-2.1c0.4,2,1.9,13.2,0,13.3c-2.4-0.1-2.1-6.8-2.2-8.3
	c-0.1-7.3-2.8-11.5-10.5-13.7c0.8-1.2,1-1.5,3.3-4.4c4.1,1.7,7.6-0.2,9.4-3.6l-1.6-0.7l-3.7-1.7l-5.6-2.5L51,37.2
	c-0.4-0.1-0.8-0.1-1.1-0.2c-1.6-0.2-6.9,7.8-8.2,9.7c-2.1,3-4.6,7.3-4.8,9.5c-0.3,3.8,3.8,8.2,5.9,11.7c2.1,3.5,5.5,7.8,6.2,11.3
	c1.2,6.3,0.9,6,0.4,13.4l25,5.2c-0.5-4.9-1.1-10.9,0.1-14.2c1-2.8,2.3-4.1,5.5-5.9c2.1-1.1,3.3-4.1,4-6.9c0.8-3.1,0.8-3.3,1.7-8.8
	C83.4,64.5,80.9,67.3,76.9,66.9z"/>
</svg>
