<?xml version="1.0" encoding="utf-8"?>
<!-- Generator: Adobe Illustrator 21.1.0, SVG Export Plug-In . SVG Version: 6.00 Build 0)  -->
<svg version="1.1" id="Ebene_1" xmlns="http://www.w3.org/2000/svg" xmlns:xlink="http://www.w3.org/1999/xlink" x="0px" y="0px"
	 viewBox="0 0 124.7 124.7" style="enable-background:new 0 0 124.7 124.7;" xml:space="preserve">
<circle class="st0" cx="62.4" cy="62.4" r="56.7"/>
<path d="M89.6,90.7c2.2,0,3.9-1.7,3.9-3.9c0-2.2-1.7-3.9-3.9-3.9H88l-21.2-37l6.7-11.7c1.1-1.9,0.4-4.3-1.4-5.3
	c-1.9-1.1-4.3-0.4-5.3,1.4L62.4,38l-4.4-7.7c-1.1-1.9-3.5-2.5-5.3-1.4c-1.9,1.1-2.5,3.5-1.4,5.3l6.7,11.7l-21.2,37h-1.6
	c-2.2,0-3.9,1.7-3.9,3.9c0,2.2,1.7,3.9,3.9,3.9H89.6z M70.1,82.9l-5.8-10.3c-0.6-1-1.8-1.3-2.8-0.8c-0.3,0.2-0.6,0.4-0.8,0.8
	l-5.9,10.3h-9l16.7-29.2L79,82.9H70.1z"/>
</svg>
