<?xml version="1.0" encoding="utf-8"?>
<!-- Generator: Adobe Illustrator 21.1.0, SVG Export Plug-In . SVG Version: 6.00 Build 0)  -->
<svg version="1.1" id="Ebene_1" xmlns="http://www.w3.org/2000/svg" xmlns:xlink="http://www.w3.org/1999/xlink" x="0px" y="0px"
	 viewBox="0 0 124.7 124.7" style="enable-background:new 0 0 124.7 124.7;" xml:space="preserve">
<circle class="st0" cx="62.4" cy="62.4" r="56.7"/>
<g>
	<circle cx="32.3" cy="49.7" r="5.4"/>
	<circle cx="92.4" cy="49.7" r="5.4"/>
	<path d="M86.4,70.7c-0.5-2.7-3.5-4.9-7-4.9H46c-3.5,0-6.4,2.1-7,4.9H39v0.9v0.1l0,0c0.1,11.1,10.8,20,23.7,20
		c13.1,0,23.7-9.1,23.7-20.1V70.7L86.4,70.7z M76.4,78.7L76.4,78.7c0,5.5-6.1,9.9-13.7,9.9c-7.5,0-13.6-4.4-13.6-9.9l0,0l0,0
		c0-1.4,1.7-2.5,3.7-2.5h20C74.7,76.2,76.4,77.2,76.4,78.7L76.4,78.7C76.4,78.6,76.4,78.7,76.4,78.7z"/>
</g>
</svg>
