<?xml version="1.0" encoding="utf-8"?>
<!-- Generator: Adobe Illustrator 21.1.0, SVG Export Plug-In . SVG Version: 6.00 Build 0)  -->
<svg version="1.1" id="Ebene_1" xmlns="http://www.w3.org/2000/svg" xmlns:xlink="http://www.w3.org/1999/xlink" x="0px" y="0px"
	 viewBox="0 0 124.7 124.7" style="enable-background:new 0 0 124.7 124.7;" xml:space="preserve">
<style type="text/css">
	.st1{stroke:#17558C;stroke-miterlimit:10;}
</style>
<circle class="st0" cx="62.4" cy="62.4" r="56.7"/>
<path class="st1" d="M87,43.4l-1.9,2c9.4,12.5,6.8,30.2-5.6,39.6c-4.4,3.3-9.6,5.2-15,5.6c-0.6,0-1.3,0.1-1.9,0.1
	c-8,0-15.6-3.4-21-9.3c-0.6-0.7-0.5-1.8,0.2-2.5c0.7-0.6,1.8-0.6,2.4,0.1c9.2,10.2,24.8,10.9,35,1.8c9.9-9,10.9-24.2,2.3-34.4
	c-0.6-0.7-0.5-1.7,0.1-2.4l3.1-3.1c0.5-0.5,0.4-1.3-0.1-1.8c-0.5-0.4-1.2-0.4-1.7,0l-3.2,3.2C79,42.9,78,43,77.3,42.5
	c-3.5-2.6-7.7-4.3-12-4.8c-0.9-0.1-1.6-0.8-1.6-1.7v-5.7c0-1,0.8-1.8,1.7-1.8c0,0,0,0,0,0H67c0.7,0,1.2-0.6,1.2-1.2
	c0-0.7-0.6-1.2-1.2-1.2h-9.2c-0.7,0-1.2,0.6-1.2,1.2c0,0.7,0.6,1.2,1.2,1.2h1.6c1,0,1.8,0.8,1.8,1.8v5.7c0,0.9-0.7,1.6-1.6,1.7
	C54,38.3,48.7,40.9,44.7,45c-0.7,0.7-1.8,0.7-2.5,0c-0.7-0.7-0.7-1.8,0-2.5c4.2-4.3,9.6-7.1,15.5-8.1V32c-2.6-0.2-4.5-2.5-4.3-5.2
	c0.2-2.3,2.1-4.2,4.4-4.3H67c2.6,0.2,4.6,2.4,4.5,5c-0.1,2.3-2,4.2-4.3,4.4v2.4c3.9,0.7,7.7,2.1,11,4.4l2.1-2.1
	c1.9-1.9,4.9-1.9,6.7,0C88.8,38.5,88.8,41.5,87,43.4L87,43.4L87,43.4z M29.5,53.3c0,1,0.8,1.8,1.8,1.8h12.2c1,0,1.8-0.8,1.8-1.8
	s-0.8-1.8-1.8-1.8H31.2C30.3,51.6,29.5,52.3,29.5,53.3L29.5,53.3z M49.4,61.8c0-1-0.8-1.8-1.8-1.8H35.5c-1,0-1.8,0.8-1.8,1.8
	s0.8,1.8,1.8,1.8h12.2C48.6,63.6,49.4,62.8,49.4,61.8z M31.2,72.1h12.2c1,0,1.8-0.8,1.8-1.8c0-1-0.8-1.8-1.8-1.8H31.2
	c-1,0-1.8,0.8-1.8,1.8C29.5,71.3,30.3,72.1,31.2,72.1z M72.2,55l-4.5,4.5c1.5,2.9,0.4,6.5-2.5,8c-2.9,1.5-6.5,0.4-8-2.5
	c-1.5-2.9-0.4-6.5,2.5-8c1.7-0.9,3.8-0.9,5.5,0l4.5-4.5c0.7-0.7,1.8-0.7,2.5,0S72.9,54.4,72.2,55z M64.8,62.3c0-1.3-1.1-2.4-2.4-2.4
	S60,61,60,62.3s1.1,2.4,2.4,2.4C63.8,64.7,64.8,63.6,64.8,62.3z M62.4,83.2c11.5,0,20.9-9.3,20.9-20.8S74,41.4,62.5,41.4
	c-5.5,0-10.9,2.2-14.8,6.1c-0.7,0.7-0.7,1.8,0,2.5c0.7,0.7,1.8,0.7,2.5,0c6.8-6.8,17.8-6.8,24.6,0c6.8,6.8,6.8,17.8,0,24.6
	c-6.8,6.8-17.8,6.8-24.6,0c0,0,0,0,0,0c-0.7-0.7-1.8-0.7-2.5,0c-0.7,0.7-0.7,1.8,0,2.5C51.6,81,56.9,83.2,62.4,83.2z"/>
</svg>
