<?xml version="1.0" encoding="utf-8"?>
<!-- Generator: Adobe Illustrator 21.1.0, SVG Export Plug-In . SVG Version: 6.00 Build 0)  -->
<svg version="1.1" id="Ebene_1" xmlns="http://www.w3.org/2000/svg" xmlns:xlink="http://www.w3.org/1999/xlink" x="0px" y="0px"
	 viewBox="0 0 124.7 124.7" style="enable-background:new 0 0 124.7 124.7;" xml:space="preserve">
<style type="text/css">
	.st1{stroke:#17558C;stroke-width:2;stroke-miterlimit:10;}
</style>
<circle class="st0" cx="62.4" cy="62.4" r="56.7"/>
<g>
	<path class="st1" d="M87.7,61.8c-0.8-5.9-3.1-10-7.1-12.2c-5.5-3.1-12.4-1.3-14.4-0.4c-0.8,0.4-1.6,0.6-2.2,0.8
		c1-6.1,5.6-10.3,5.6-10.3l-1.9-2.1c-0.2,0.2-5.7,5.1-6.6,12.5c-0.7-0.2-1.5-0.4-2.4-0.8c-2-0.8-8.9-2.7-14.4,0.4
		c-4,2.2-6.4,6.3-7.2,12.2c-1.5,11.2,4.6,21.1,11.4,26c3.7,2.7,7.2,3.6,9.6,2.4c0.4-0.1,2.4-0.8,4.3-0.8c1.8,0.1,3.9,0.7,4.3,0.8
		c0.7,0.3,1.4,0.5,2.3,0.5c2.1,0,4.6-1,7.3-2.9C83,82.8,89.1,72.9,87.7,61.8z"/>
	<path class="st1" d="M52.4,44.4c2.1,0,4.5-0.4,7.1-1.3l1.5-0.5l-0.7-1.4c-2.2-4.5-9.4-12-20.8-7.7l-1.3,0.5l0.5,1.3
		C38.8,35.3,42.3,44.4,52.4,44.4z"/>
</g>
</svg>
