<?xml version="1.0" encoding="utf-8"?>
<!-- Generator: Adobe Illustrator 21.1.0, SVG Export Plug-In . SVG Version: 6.00 Build 0)  -->
<svg version="1.1" id="Ebene_1" xmlns="http://www.w3.org/2000/svg" xmlns:xlink="http://www.w3.org/1999/xlink" x="0px" y="0px"
	 viewBox="0 0 124.7 124.7" style="enable-background:new 0 0 124.7 124.7;" xml:space="preserve">
<circle class="st0" cx="62.4" cy="62.4" r="56.7"/>
<path d="M81.9,46.8C81.9,46.8,81.9,46.8,81.9,46.8c0-0.1-0.1-0.2-0.2-0.2c0,0-0.1,0-0.1,0.1l-4.7,4.7c-2.3,2.3-3.8,5.4-4,8.6
	c0,0.2,0,0.4,0,0.7v0.6c0.5,1.1,0.8,2.3,1.1,3.4h-8.5c-0.4-3.6-1.6-7.1-3.6-10.1c-1.5,1.6-3.2,2.9-5.2,3.8c-1.3,0.7-2.8,1.1-4.2,1.4
	c-6.6,1-14.9-3.3-18.9-27.7c-0.1-0.7,0.4-1.3,1-1.4l0,0c31.7-4.5,33.5,7.8,32,15.2c-4.1-2.2-8.5-3.6-13.1-4.1h-0.1
	c-0.2,0-0.3,0.2-0.2,0.3c0,0.1,0.1,0.1,0.1,0.2L61,48l0,0l3.9,2.9c1.5,1.1,2.9,2.4,4.1,3.9c0.9-1.5,2-2.9,3.3-4.1
	c-0.7-1-1.3-2.1-1.7-3.3c-0.3-1-0.4-1.9-0.4-2.9c0-4.4,3.7-9.4,20.2-9.6c0.5,0,0.8,0.4,0.8,0.8c0,0,0,0,0,0l0,0
	C90.9,56.8,82.6,56.8,77.9,55C79.8,52.6,81.1,49.8,81.9,46.8z M48.1,91h23.1c3.1,0,6.1-1.3,8.1-3.7l14.5-16.5
	c1.6-1.9,1.5-4.7-0.4-6.4c0,0-0.1-0.1-0.1-0.1c-0.8-0.6-1.8-1-2.8-1c-1.4,0-2.7,0.6-3.6,1.6l-6.8,7.6c0,0,0,0.1,0,0.1
	c-0.2,4.2-3.7,7.5-7.9,7.5h-8.3c-0.9,0-1.7-0.8-1.7-1.7c0-0.9,0.8-1.7,1.7-1.7l0,0h8.3c2.4,0,4.4-1.8,4.5-4.2
	c0.1-2.4-1.8-4.4-4.2-4.5c0,0-0.1,0-0.1,0H58.5l-2.3-0.8c-5.7-2-11.9-0.6-16.2,3.7L29.8,81.1L44.1,95L48.1,91z"/>
</svg>
