<?xml version="1.0" encoding="utf-8"?>
<!-- Generator: Adobe Illustrator 21.1.0, SVG Export Plug-In . SVG Version: 6.00 Build 0)  -->
<svg version="1.1" id="Ebene_1" xmlns="http://www.w3.org/2000/svg" xmlns:xlink="http://www.w3.org/1999/xlink" x="0px" y="0px"
	 viewBox="0 0 124.7 124.7" style="enable-background:new 0 0 124.7 124.7;" xml:space="preserve">
<circle class="st0" cx="62.4" cy="62.4" r="56.7"/>
<g>
	<g>
		<path d="M34,50.4v6.2c0,1.6,1.3,2.8,2.8,2.8c1.6,0,2.8-1.3,2.8-2.8v-6.2c3.3-1.2,5.7-4.3,5.7-8c0-4.7-3.8-8.5-8.5-8.5
			s-8.5,3.8-8.5,8.5C28.3,46.1,30.7,49.3,34,50.4"/>
		<path d="M82.2,90.7h-17c-1.6,0-2.8-1.3-2.8-2.8c0-4.7-3.8-8.5-8.5-8.5h-17c-1.6,0-2.8-1.3-2.8-2.8c0-1.6,1.3-2.8,2.8-2.8
			c1.6,0,2.8-1.3,2.8-2.8c0-1.6-1.3-2.8-2.8-2.8c-4.7,0-8.5,3.8-8.5,8.5c0,4.7,3.8,8.5,8.5,8.5h17c1.6,0,2.8,1.3,2.8,2.8
			c0,4.7,3.8,8.5,8.5,8.5h17c1.6,0,2.8-1.3,2.8-2.8S83.8,90.7,82.2,90.7"/>
		<path d="M81,43.1l-7.6-13.4c-1-1.8-3.9-1.8-4.9,0L62,40.9l9.2,9.2L81,43.1z"/>
		<path d="M96,69.4l-2.3-4L83.8,48l-11.3,8.1c-0.5,0.4-1.1,0.5-1.6,0.5c-0.7,0-1.5-0.3-2-0.8L59.1,46L45.7,69.4
			c-0.5,0.9-0.5,2,0,2.8c0.5,0.9,1.4,1.4,2.5,1.4h45.4c1,0,1.9-0.5,2.5-1.4C96.5,71.4,96.5,70.3,96,69.4"/>
	</g>
</g>
</svg>
