<?xml version="1.0" encoding="utf-8"?>
<!-- Generator: Adobe Illustrator 21.1.0, SVG Export Plug-In . SVG Version: 6.00 Build 0)  -->
<svg version="1.1" id="Ebene_1" xmlns="http://www.w3.org/2000/svg" xmlns:xlink="http://www.w3.org/1999/xlink" x="0px" y="0px"
	 viewBox="0 0 124.7 124.7" style="enable-background:new 0 0 124.7 124.7;" xml:space="preserve">
<circle class="st0" cx="62.4" cy="62.4" r="56.7"/>
<path d="M77.5,74.6c-1.1,0-2.1,0.2-3,0.5l-2.7-8c-0.5-1.5-1.9-2.5-3.5-2.5H66c-0.8,0-1.4,0.6-1.4,1.4c0,0.8,0.6,1.4,1.4,1.4h2.3
	c0.4,0,0.7,0.2,0.8,0.6l0.4,1.2H57.7l-0.2-0.6l0.6-0.1c0.5-0.1,1-0.5,1-1.1l0-0.1c0-0.8-0.6-1.5-1.4-1.5l-3.9-0.4
	c-0.5,0-0.9,0.1-1.3,0.5c-0.3,0.3-0.5,0.8-0.4,1.3l0.1,1.1c0,0.3,0.2,0.5,0.4,0.7c0.2,0.2,0.5,0.2,0.7,0.2l1.3-0.2l0.4,1.3l-3,5
	c-1.1-0.5-2.3-0.7-3.6-0.7c-5.2,0-9.5,4.2-9.5,9.5c0,5.2,4.2,9.5,9.5,9.5c4.7,0,8.7-3.5,9.3-8.1h4c0.4,0,0.8-0.2,1.1-0.5l8.5-10.1
	l0.5,1.5c-2.4,1.7-3.9,4.5-3.9,7.7c0,5.2,4.2,9.5,9.5,9.5c5.2,0,9.5-4.2,9.5-9.5C86.9,78.8,82.7,74.6,77.5,74.6z M56.3,73.8l2.9,8.9
	h-1.3c-0.4-2.4-1.6-4.5-3.4-5.9L56.3,73.8z M53.1,79.2c1,0.9,1.7,2.1,2,3.5H51L53.1,79.2z M48.5,90.8c-3.7,0-6.7-3-6.7-6.7
	c0-3.7,3-6.7,6.7-6.7c0.8,0,1.5,0.1,2.1,0.4l-3.3,5.6c-0.3,0.4-0.3,1,0,1.4c0.2,0.4,0.7,0.7,1.2,0.7h6.5
	C54.4,88.5,51.7,90.8,48.5,90.8z M61.9,81.9L58.6,72h11.6L61.9,81.9z M77.5,90.8c-3.7,0-6.7-3-6.7-6.7c0-1.9,0.8-3.6,2.1-4.9
	c0.7,2.2,2,4.2,3.6,5.8c0.3,0.3,0.6,0.4,1,0.4c0.3,0,0.7-0.1,1-0.4c0.6-0.5,0.6-1.4,0-2c-1.3-1.4-2.4-3.1-3-4.9l-0.2-0.5
	c0.7-0.2,1.4-0.4,2.1-0.4c3.7,0,6.7,3,6.7,6.7S81.1,90.8,77.5,90.8z"/>
<polygon points="83.4,43.8 62.4,31.2 41.1,43.9 41.1,50.1 62.4,37.4 83.4,50 "/>
<polygon points="83.4,59.1 62.4,46.6 41.1,59.3 41.1,65.5 62.4,52.8 83.4,65.4 "/>
<rect x="91.5" y="79" width="4.9" height="13.5"/>
<rect x="91.5" y="32.9" width="4.9" height="13.5"/>
<rect x="91.5" y="55.9" width="4.9" height="13.5"/>
<rect x="28.3" y="79" width="4.9" height="13.5"/>
<rect x="28.3" y="32.9" width="4.9" height="13.5"/>
<rect x="28.3" y="55.9" width="4.9" height="13.5"/>
</svg>
