<?xml version="1.0" encoding="utf-8"?>
<!-- Generator: Adobe Illustrator 21.1.0, SVG Export Plug-In . SVG Version: 6.00 Build 0)  -->
<svg version="1.1" id="Ebene_1" xmlns="http://www.w3.org/2000/svg" xmlns:xlink="http://www.w3.org/1999/xlink" x="0px" y="0px"
	 viewBox="0 0 124.7 124.7" style="enable-background:new 0 0 124.7 124.7;" xml:space="preserve">
<circle class="st0" cx="62.4" cy="62.4" r="56.7"/>
<g>
	<g>
		<circle cx="62.6" cy="28.8" r="5"/>
		<path d="M74.8,61.9l-4.3-2v0h-0.1l0,0l0,0H55.1v0.5c0,0.2,0,0.3-0.1,0.5h15.3l4.1,2c0.2,0.1,0.5,0,0.7-0.2
			C75.2,62.3,75.1,62,74.8,61.9z"/>
		<path d="M51.3,61.4l-1,0.5c-0.3,0.1-0.4,0.3-0.4,0.6c0.1,0.3,0.3,0.4,0.6,0.4l1.5-0.7C51.8,61.9,51.5,61.7,51.3,61.4z"/>
		<path d="M67.6,61.9h-2h-2v3c0,1.1,0.9,2,2,2v9c0,1.1,0.9,2,2,2c1.1,0,2-0.9,2-2v-12C69.6,62.7,68.7,61.9,67.6,61.9z"/>
		<path d="M62.6,68.8c-0.6,0-1,0.4-1,1v32.9c0,0.6,0.4,1,1,1s1-0.4,1-1V69.8C63.6,69.3,63.1,68.8,62.6,68.8z"/>
		<path d="M59.1,94.3h-3c-0.3,0-0.5,0.2-0.5,0.5s0.2,0.5,0.5,0.5h3c0.3,0,0.5-0.2,0.5-0.5S59.3,94.3,59.1,94.3z"/>
		<path d="M69.1,78.3h-3c-0.3,0-0.5,0.2-0.5,0.5s0.2,0.5,0.5,0.5h3c0.3,0,0.5-0.2,0.5-0.5C69.6,78.6,69.3,78.3,69.1,78.3z"/>
		<path d="M61.6,64.8v-3h-2h-2c-1.1,0-2,0.9-2,2v27.9c0,1.1,0.9,2,2,2s2-0.9,2-2V66.8C60.7,66.8,61.6,65.9,61.6,64.8z"/>
		<path d="M62.6,66.8c-1.4,0-2.5,1.1-2.5,2.5v16.9c0,0.3,0.2,0.5,0.5,0.5s0.5-0.2,0.5-0.5V69.3c0-0.8,0.7-1.5,1.5-1.5
			s1.5,0.7,1.5,1.5v16.9c0,0.3,0.2,0.5,0.5,0.5s0.5-0.2,0.5-0.5V69.3C65.1,68,63.9,66.8,62.6,66.8z"/>
		<path d="M95.1,34.8H69.6h-14h-1c-1.7,0-3,1.3-3,3v22.6c0,0.8,0.7,1.5,1.5,1.5s1.5-0.7,1.5-1.5V38.8h1v20h14v-21h25.6
			c0.8,0,1.5-0.7,1.5-1.5S96,34.8,95.1,34.8z"/>
	</g>
</g>
</svg>
